<svg xmlns="http://www.w3.org/2000/svg" viewBox="0 0 512 512" role="img" aria-label="JN Corporations icon">
  <defs>
    <linearGradient id="g" x1="80" y1="40" x2="430" y2="470" gradientUnits="userSpaceOnUse">
      <stop stop-color="#8bd8ff"/>
      <stop offset=".46" stop-color="#b8f0d2"/>
      <stop offset="1" stop-color="#ffd7a8"/>
    </linearGradient>
    <filter id="s" x="-20%" y="-20%" width="140%" height="140%">
      <feDropShadow dx="0" dy="24" stdDeviation="24" flood-color="#55728c" flood-opacity=".22"/>
    </filter>
  </defs>
  <rect width="512" height="512" rx="118" fill="#eef5ff"/>
  <rect x="76" y="76" width="360" height="360" rx="104" fill="url(#g)" filter="url(#s)"/>
  <path fill="#203044" d="M152 170h68v132c0 52-32 82-82 82-15 0-31-3-43-9l12-54c8 4 17 6 27 6 12 0 18-8 18-27V170Zm106 0h61l82 113V170h64v212h-58l-85-116v116h-64V170Z"/>
</svg>
